<svg width="34" height="33" viewBox="0 0 34 33" fill="none" xmlns="http://www.w3.org/2000/svg">
<path d="M17.1279 26.6699C17.1615 26.7151 17.2019 26.7892 17.2295 26.8975C17.2669 27.0446 17.2687 27.2098 17.2334 27.3594C17.2063 27.4741 17.1633 27.5527 17.1279 27.6006C17.0926 27.5527 17.0505 27.4739 17.0234 27.3594C16.9881 27.2097 16.9899 27.0446 17.0273 26.8975C17.0548 26.7894 17.0944 26.7151 17.1279 26.6699ZM24.2871 23.6289C24.415 23.8049 24.6081 23.9704 24.8691 24.0576C24.8728 24.0764 24.8755 24.0988 24.875 24.125H17.8828C17.5669 24.125 17.3117 24.25 17.1279 24.4082C16.9456 24.251 16.6923 24.1241 16.375 24.124H9.39453C9.39394 24.0962 9.39546 24.0722 9.39941 24.0527C9.65382 23.9645 9.84192 23.8018 9.96777 23.6289C9.97037 23.6324 9.97295 23.6361 9.97559 23.6396C10.1615 23.8877 10.4856 24.1132 10.9092 24.1133H23.3477C23.7886 24.1133 24.1077 23.8703 24.2812 23.6387C24.2835 23.6356 24.2849 23.632 24.2871 23.6289ZM25.0029 6.00391C25.0116 6.01154 25.0264 6.02279 25.043 6.04492C25.0903 6.10811 25.1408 6.21552 25.1631 6.3584L25.1748 6.51367C25.1744 6.70439 25.1206 6.86062 25.0596 6.9541C25.0319 6.99636 25.0078 7.0151 24.998 7.02246L24.9834 7.02637L24.9492 7.03516C24.6442 7.11505 24.4235 7.30313 24.2832 7.5C24.2824 7.49894 24.282 7.49715 24.2812 7.49609C24.1076 7.26454 23.7884 7.02246 23.3477 7.02246H10.9092C10.4725 7.02253 10.1524 7.26016 9.97559 7.49609C9.97265 7.50001 9.96967 7.50388 9.9668 7.50781C9.82452 7.31266 9.602 7.12798 9.29688 7.05176L9.22363 7.0332L9.1748 7.02832C9.16321 7.01884 9.14146 6.99865 9.11621 6.95996C9.04705 6.85383 8.98987 6.67302 9.00098 6.45996C9.01216 6.24574 9.08689 6.09479 9.14746 6.02441C9.15548 6.01511 9.16335 6.00901 9.16895 6.00391H25.0029Z" fill="#252525" stroke="#252525" stroke-width="2"/>
<path d="M14.6772 21.1004C14.6819 21.515 14.9322 21.8502 15.2429 21.8553H22.4045C22.5508 21.8481 22.6893 21.7655 22.7909 21.6248C22.8925 21.4841 22.9492 21.2963 22.9492 21.101C22.9492 20.9056 22.8925 20.7178 22.7909 20.5771C22.6893 20.4365 22.5508 20.3538 22.4045 20.3466H21.8389C21.789 20.3463 21.7412 20.3197 21.706 20.2725C21.6708 20.2254 21.6511 20.1615 21.6511 20.095V15.5678C21.6511 15.3008 21.5716 15.0448 21.4302 14.8561C21.2888 14.6673 21.0969 14.5613 20.8969 14.5613H20.1427C20.0437 14.5613 19.9457 14.5873 19.8542 14.6379C19.7628 14.6885 19.6797 14.7627 19.6097 14.8561C19.5397 14.9496 19.4843 15.0606 19.4464 15.1827C19.4086 15.3048 19.3892 15.4357 19.3893 15.5678V20.095C19.3893 20.2342 19.3043 20.3466 19.2008 20.3466H18.4466C18.3966 20.3466 18.3486 20.3201 18.3133 20.2729C18.2779 20.2257 18.258 20.1617 18.258 20.095V18.5863C18.258 18.3195 18.1787 18.0636 18.0374 17.8749C17.8961 17.6862 17.7045 17.58 17.5046 17.5798H16.7504C16.5506 17.58 16.3589 17.6862 16.2177 17.8749C16.0764 18.0636 15.997 18.3195 15.997 18.5863V20.095C15.997 20.2342 15.912 20.3466 15.8085 20.3466H15.2429C15.0935 20.3487 14.9506 20.4288 14.8449 20.5697C14.7392 20.7106 14.679 20.9011 14.6772 21.1004ZM15.6199 15.8194C15.6339 15.4259 15.5719 15.0343 15.4398 14.682C15.3077 14.3296 15.1101 14.0285 14.8658 13.8074L13.4563 12.5999C13.4261 12.5714 13.4014 12.5337 13.3844 12.4899C13.3673 12.4462 13.3583 12.3976 13.3582 12.3482C13.3601 12.2689 13.3846 12.1935 13.4266 12.1374C13.4687 12.0813 13.5252 12.0486 13.5846 12.0461H14.8658C15.0657 12.0461 15.2574 11.9402 15.3988 11.7516C15.5402 11.5631 15.6197 11.3074 15.6199 11.0406C15.6229 10.8023 15.5623 10.5704 15.4491 10.3861C15.3359 10.2018 15.1774 10.077 15.0018 10.0341C14.9646 10.024 14.9306 9.99955 14.9038 9.96379C14.877 9.92804 14.8587 9.88255 14.8511 9.83301C14.8189 9.5986 14.7255 9.38703 14.5873 9.23595C14.4492 9.08488 14.2754 9.00411 14.0969 9.00801C13.9154 9.01091 13.7408 9.10105 13.6052 9.26186C13.4695 9.42268 13.3818 9.64341 13.3582 9.88354C13.3555 9.93503 13.3399 9.98382 13.314 10.0221C13.2881 10.0605 13.2533 10.0861 13.2152 10.0949C11.9116 10.4394 11.3777 12.54 12.2547 13.8734C12.3578 14.0302 12.4744 14.1656 12.6048 14.2798L13.9918 15.5069C14.0729 15.5719 14.1201 15.6926 14.1124 15.8194C14.1102 15.8986 14.0857 15.9737 14.0436 16.0296C14.0016 16.0855 13.9453 16.118 13.8859 16.1205H12.6048C12.4047 16.1205 12.2129 16.2266 12.0715 16.4153C11.93 16.6041 11.8506 16.8601 11.8506 17.127C11.8444 17.6189 12.1056 18.0449 12.4688 18.1335C12.5445 18.1542 12.6032 18.2336 12.6194 18.3346C12.6522 18.5687 12.7458 18.7798 12.8838 18.9307C13.0218 19.0816 13.1952 19.1627 13.3736 19.1596C13.5566 19.1618 13.7339 19.0751 13.8725 18.9157C14.0111 18.7563 14.1016 18.5352 14.127 18.2934C14.1307 18.2423 14.1467 18.1942 14.1726 18.1562C14.1985 18.1183 14.233 18.0926 14.2708 18.083C14.6562 17.9698 15.0007 17.683 15.2464 17.2708C15.4921 16.8586 15.624 16.3461 15.6199 15.8194Z" fill="#252525"/>
<path d="M17 1C25.8649 1 33 7.96752 33 16.5C33 25.0325 25.8649 32 17 32C8.13509 32 1 25.0325 1 16.5C1 7.96752 8.13509 1 17 1Z" stroke="#252525" stroke-width="2"/>
</svg>
