<svg width="38" height="35" viewBox="0 0 38 35" fill="none" xmlns="http://www.w3.org/2000/svg">
<path d="M19 34C9.05838 34 1 26.6132 1 17.5C1 8.38684 9.05838 1 19 1C28.9416 1 37 8.38684 37 17.5H34.75C34.75 9.52637 27.6985 3.0625 19 3.0625C10.3015 3.0625 3.25 9.52637 3.25 17.5C3.25 25.4736 10.3015 31.9375 19 31.9375V34Z" fill="#252525" stroke="#252525"/>
<path d="M31.375 21.625V34H29.125V21.625H31.375ZM25.75 25.75V34H23.5V25.75H25.75ZM37 23.6875V34H34.75V23.6875H37ZM20.125 10.2812V16.4688H26.875V18.5312H20.125V24.7188H17.875V18.5312H11.125V16.4688H17.875V10.2812H20.125Z" fill="#252525" stroke="#252525"/>
</svg>
