<svg width="36" height="33" viewBox="0 0 36 33" fill="none" xmlns="http://www.w3.org/2000/svg">
<path d="M18 1C27.4725 1 35 8.01971 35 16.5C35 24.9803 27.4725 32 18 32C8.52747 32 1 24.9803 1 16.5C1 8.01971 8.52747 1 18 1Z" stroke="#252525" stroke-width="2"/>
<path fill-rule="evenodd" clip-rule="evenodd" d="M18.0002 7.5C15.2363 7.5 12.5857 8.36919 10.6314 9.91637C8.67703 11.4635 7.5791 13.562 7.5791 15.75V17.25C7.5791 18.042 7.98647 18.8025 8.41847 19.389C8.85615 19.9875 9.38289 20.4885 9.75047 20.781L12.4353 22.905L13.5286 25.5H22.4717L23.565 22.905L26.2498 20.781C26.6174 20.4885 27.1442 19.986 27.5818 19.389C28.0138 18.8025 28.4212 18.042 28.4212 17.25V15.75C28.4212 13.562 27.3233 11.4635 25.369 9.91637C23.4146 8.36919 20.764 7.5 18.0002 7.5ZM20.5656 14.031L19.2242 12.969L15.7132 15.75L17.6079 17.25L15.4347 18.969L16.7762 20.031L20.2871 17.25L18.3924 15.75L20.5656 14.031Z" fill="#252525"/>
<path d="M21.7889 28.5V27H14.21V28.5H21.7889Z" fill="#252525"/>
</svg>
