<svg width="39" height="33" viewBox="0 0 39 33" fill="none" xmlns="http://www.w3.org/2000/svg">
<rect x="1.24023" y="1" width="36.2433" height="31" rx="5" stroke="black" stroke-width="2"/>
<path d="M26.7471 19.1587C26.9989 19.0252 27.0849 18.7293 26.9397 18.4978C26.7944 18.2665 26.4727 18.1872 26.2208 18.3207L19.3489 21.9683L12.5022 18.3343C12.2507 18.2007 11.9289 18.2798 11.7834 18.5114C11.6382 18.7428 11.7245 19.0387 11.9761 19.1722L19.0657 22.9352C19.1273 22.9679 19.1952 22.9888 19.2654 22.9967C19.3357 23.0046 19.4069 22.9993 19.4749 22.9811C19.5391 22.9719 19.601 22.9518 19.6575 22.9218L26.7471 19.1587Z" fill="black"/>
<path d="M19.0624 10.8017C19.1275 10.7673 19.1993 10.7453 19.2735 10.7371C19.3477 10.7288 19.4229 10.7345 19.4948 10.7537C19.5617 10.7634 19.6261 10.7844 19.6851 10.8156L27.18 14.7745C27.387 14.8839 27.489 15.0966 27.4529 15.3008C27.4784 15.4783 27.4055 15.6646 27.1852 15.7816L19.69 19.7601C19.6303 19.7917 19.565 19.8128 19.4973 19.8225C19.4253 19.8417 19.35 19.8473 19.2757 19.839C19.2014 19.8307 19.1296 19.8086 19.0644 19.7741L11.5695 15.796C11.351 15.6801 11.2777 15.4958 11.3012 15.3197C11.2476 15.106 11.349 14.876 11.5669 14.7608L19.0624 10.8017ZM19.3605 11.8223L12.8189 15.2778L19.3641 18.7519L25.9057 15.2797L19.3605 11.8223Z" fill="black"/>
<path d="M19.4853 7.02128C19.5555 7.03162 19.6232 7.05368 19.6852 7.08641L27.5586 11.2452C27.7591 11.3511 27.8658 11.5491 27.8516 11.7473C27.8927 11.9632 27.7864 12.1891 27.5679 12.3048L19.6945 16.4842C19.6318 16.5175 19.5631 16.5397 19.4919 16.5497C19.4163 16.5699 19.3372 16.5758 19.2592 16.5671C19.1812 16.5584 19.1057 16.5352 19.0373 16.4989L11.1639 12.3199C10.9584 12.211 10.8521 12.0047 10.8742 11.801C10.8271 11.5813 10.934 11.3487 11.1572 11.2307L19.031 7.07191C19.0994 7.03569 19.1748 7.01258 19.2528 7.00389C19.3307 6.9952 19.4098 7.00111 19.4853 7.02128Z" fill="black"/>
</svg>
