<svg width="41" height="37" viewBox="0 0 41 37" fill="none" xmlns="http://www.w3.org/2000/svg">
<path d="M26.0984 2H14.6254C8.31525 2 5.16017 2 3.2002 4.11406C1.24023 6.22813 1.24023 9.63125 1.24023 16.4375V20.5625C1.24023 27.3687 1.24023 30.7719 3.2002 32.8859C5.16017 35 8.31525 35 14.6254 35H26.0984C32.4085 35 35.5636 35 37.5236 32.8859C39.4836 30.7719 39.4836 27.3687 39.4836 20.5625V16.4375C39.4836 9.63125 39.4836 6.22813 37.5236 4.11406C35.5636 2 32.4085 2 26.0984 2Z" stroke="black" stroke-width="2.5" stroke-linecap="round" stroke-linejoin="round"/>
<path d="M38.5283 10.25H19.4066L21.3188 13.3438H38.5283V10.25ZM16.5384 17.4688C16.5384 18.8363 16.0347 20.1478 15.1382 21.1148C14.2417 22.0818 13.0258 22.625 11.758 22.625C10.4901 22.625 9.27419 22.0818 8.37769 21.1148C7.48119 20.1478 6.97754 18.8363 6.97754 17.4688C6.97754 16.1012 7.48119 14.7897 8.37769 13.8227C9.27419 12.8557 10.4901 12.3125 11.758 12.3125C13.0258 12.3125 14.2417 12.8557 15.1382 13.8227C16.0347 14.7897 16.5384 16.1012 16.5384 17.4688Z" stroke="black" stroke-width="2.5" stroke-linecap="round" stroke-linejoin="round"/>
</svg>
