<svg width="39" height="33" viewBox="0 0 39 33" fill="none" xmlns="http://www.w3.org/2000/svg">
<path d="M26.0744 15.45V18.15H30.71V15.45H26.0744ZM23.7567 24.3735C24.8692 25.332 26.3178 26.601 27.4651 27.6C27.9287 26.8845 28.3922 26.1555 28.8558 25.44C27.7085 24.441 26.2599 23.172 25.1473 22.2C24.6838 22.929 24.2202 23.658 23.7567 24.3735ZM28.8558 8.16C28.3922 7.4445 27.9287 6.7155 27.4651 6C26.3178 6.999 24.8692 8.268 23.7567 9.24C24.2202 9.9555 24.6838 10.6845 25.1473 11.4C26.2599 10.428 27.7085 9.1725 28.8558 8.16ZM9.85 12.75C8.57523 12.75 7.53223 13.965 7.53223 15.45V18.15C7.53223 19.635 8.57523 20.85 9.85 20.85H11.0089V26.25H13.3267V20.85H14.4856L20.28 24.9V8.7L14.4856 12.75H9.85ZM15.6792 15.0585L17.9622 13.4655V20.1345L15.6792 18.5415L15.1229 18.15H9.85V15.45H15.1229L15.6792 15.0585ZM23.1772 16.8C23.1772 15.0045 22.5051 13.3845 21.4389 12.2775V21.309C22.5051 20.2155 23.1772 18.5955 23.1772 16.8Z" fill="black"/>
<path opacity="0.3" d="M15.6788 15.0586L17.9618 13.4656V20.1346L15.6788 18.5416L15.1226 18.1501H9.84961V15.4501H15.1226L15.6788 15.0586Z" fill="black"/>
<path d="M19.1221 1C29.2737 1.00019 37.2432 8.07302 37.2432 16.5C37.2432 24.927 29.2737 31.9998 19.1221 32C8.97027 32 1 24.9271 1 16.5C1 8.0729 8.97027 1 19.1221 1Z" stroke="black" stroke-width="2"/>
</svg>
