<svg width="36" height="33" viewBox="0 0 36 33" fill="none" xmlns="http://www.w3.org/2000/svg">
<path d="M18 1C27.4725 1 35 8.01971 35 16.5C35 24.9803 27.4725 32 18 32C8.52747 32 1 24.9803 1 16.5C1 8.01971 8.52747 1 18 1Z" stroke="black" stroke-width="2"/>
<path d="M13.4996 22.44V21.12C13.4996 19.3695 13.9737 17.6908 14.8176 16.4531C15.6615 15.2153 16.8061 14.52 17.9996 14.52M17.9996 14.52C19.1931 14.52 20.3377 15.2153 21.1816 16.4531C22.0255 17.6908 22.4996 19.3695 22.4996 21.12V22.44M17.9996 14.52C18.7157 14.52 19.4024 14.1028 19.9088 13.3601C20.4151 12.6175 20.6996 11.6102 20.6996 10.56C20.6996 9.50972 20.4151 8.50248 19.9088 7.75983C19.4024 7.01719 18.7157 6.59998 17.9996 6.59998C17.2835 6.59998 16.5968 7.01719 16.0904 7.75983C15.5841 8.50248 15.2996 9.50972 15.2996 10.56C15.2996 11.6102 15.5841 12.6175 16.0904 13.3601C16.5968 14.1028 17.2835 14.52 17.9996 14.52ZM8.09961 22.44V21.12C8.09961 20.0697 8.38407 19.0625 8.89042 18.3198C9.39677 17.5772 10.0835 17.16 10.7996 17.16M10.7996 17.16C11.277 17.16 11.7348 16.8818 12.0724 16.3867C12.41 15.8916 12.5996 15.2201 12.5996 14.52C12.5996 13.8198 12.41 13.1483 12.0724 12.6532C11.7348 12.1581 11.277 11.88 10.7996 11.88C10.3222 11.88 9.86438 12.1581 9.52682 12.6532C9.18925 13.1483 8.99961 13.8198 8.99961 14.52C8.99961 15.2201 9.18925 15.8916 9.52682 16.3867C9.86438 16.8818 10.3222 17.16 10.7996 17.16ZM27.8996 22.44V21.12C27.8996 20.0697 27.6151 19.0625 27.1088 18.3198C26.6024 17.5772 25.9157 17.16 25.1996 17.16M25.1996 17.16C25.677 17.16 26.1348 16.8818 26.4724 16.3867C26.81 15.8916 26.9996 15.2201 26.9996 14.52C26.9996 13.8198 26.81 13.1483 26.4724 12.6532C26.1348 12.1581 25.677 11.88 25.1996 11.88C24.7222 11.88 24.2644 12.1581 23.9268 12.6532C23.5893 13.1483 23.3996 13.8198 23.3996 14.52C23.3996 15.2201 23.5893 15.8916 23.9268 16.3867C24.2644 16.8818 24.7222 17.16 25.1996 17.16Z" stroke="black" stroke-width="2.2" stroke-linecap="round" stroke-linejoin="round"/>
</svg>
