<svg width="32" height="32" viewBox="0 0 32 32" fill="none" xmlns="http://www.w3.org/2000/svg">
<path d="M10.0669 28.9995C22.1394 28.9995 28.7444 18.9951 28.7444 10.322C28.7444 10.0407 28.7381 9.75324 28.7256 9.47199C30.0105 8.54279 31.1193 7.39185 32 6.07324C30.8034 6.60565 29.5329 6.95335 28.2319 7.10449C29.6017 6.28339 30.6274 4.99347 31.1187 3.47387C29.8301 4.23759 28.4208 4.77633 26.9513 5.06699C25.9611 4.01493 24.652 3.31833 23.2262 3.08491C21.8005 2.85149 20.3376 3.09425 19.0637 3.77564C17.7897 4.45704 16.7757 5.53912 16.1785 6.85459C15.5812 8.17007 15.4339 9.64567 15.7594 11.0532C13.15 10.9223 10.5972 10.2445 8.26664 9.06364C5.93604 7.88284 3.87959 6.22543 2.23062 4.19887C1.39253 5.64384 1.13608 7.35371 1.51337 8.98097C1.89067 10.6082 2.87342 12.0308 4.26188 12.9595C3.2195 12.9264 2.19997 12.6458 1.2875 12.1407V12.222C1.28657 13.7384 1.8108 15.2083 2.77108 16.3819C3.73136 17.5554 5.06843 18.3603 6.555 18.6595C5.58941 18.9237 4.57598 18.9622 3.59313 18.772C4.01261 20.0761 4.82876 21.2167 5.92769 22.0346C7.02662 22.8525 8.35349 23.307 9.72313 23.3345C7.3979 25.161 4.52557 26.1517 1.56875 26.147C1.04438 26.1462 0.520532 26.1141 0 26.0507C3.00381 27.9778 6.49804 29.0014 10.0669 28.9995Z" fill="#606E7A"/>
</svg>
